<svg  xmlns="http://www.w3.org/2000/svg" style='display: none' >
<defs>
<symbol id="close" viewBox="0 0 24 24" fill="none">
<path d="M18 6L6 18" stroke-width="1.8" stroke-linecap="round" stroke-linejoin="round"/>
<path d="M6 6L18 18" stroke-width="1.8" stroke-linecap="round" stroke-linejoin="round"/>
</symbol>
<symbol id="border" width="3" height="16" viewBox="0 0 2 16" fill="none">
<path d="M1 0V16" stroke-opacity="0.1"/>
</symbol>
<symbol id="normal" width="18" height="18" viewBox="0 0 18 18" fill="none">
<path d="M15.6301 3.45753C15.247 3.07428 14.7922 2.77026 14.2916 2.56284C13.791 2.35542 13.2545 2.24866 12.7126 2.24866C12.1707 2.24866 11.6342 2.35542 11.1336 2.56284C10.633 2.77026 10.1782 3.07428 9.79509 3.45753L9.00009 4.25253L8.20509 3.45753C7.43132 2.68376 6.38186 2.24906 5.28759 2.24906C4.19331 2.24906 3.14386 2.68376 2.37009 3.45753C1.59632 4.2313 1.16162 5.28075 1.16162 6.37503C1.16162 7.4693 1.59632 8.51876 2.37009 9.29253L3.16509 10.0875L9.00009 15.9225L14.8351 10.0875L15.6301 9.29253C16.0133 8.90946 16.3174 8.45464 16.5248 7.95404C16.7322 7.45345 16.839 6.91689 16.839 6.37503C16.839 5.83316 16.7322 5.2966 16.5248 4.79601C16.3174 4.29542 16.0133 3.84059 15.6301 3.45753Z" stroke-opacity="0.8" stroke-width="1.5" stroke-linecap="round" stroke-linejoin="round"/>
</symbol>
<symbol  width="18" height="18" viewBox="0 0 18 18" fill="none">
<path d="M15.6301 3.45753C15.247 3.07428 14.7922 2.77026 14.2916 2.56284C13.791 2.35542 13.2545 2.24866 12.7126 2.24866C12.1707 2.24866 11.6342 2.35542 11.1336 2.56284C10.633 2.77026 10.1782 3.07428 9.79509 3.45753L9.00009 4.25253L8.20509 3.45753C7.43132 2.68376 6.38186 2.24906 5.28759 2.24906C4.19331 2.24906 3.14386 2.68376 2.37009 3.45753C1.59632 4.2313 1.16162 5.28075 1.16162 6.37503C1.16162 7.4693 1.59632 8.51876 2.37009 9.29253L3.16509 10.0875L9.00009 15.9225L14.8351 10.0875L15.6301 9.29253C16.0133 8.90946 16.3174 8.45464 16.5248 7.95404C16.7322 7.45345 16.839 6.91689 16.839 6.37503C16.839 5.83316 16.7322 5.2966 16.5248 4.79601C16.3174 4.29542 16.0133 3.84059 15.6301 3.45753Z" fill="#3470FF" stroke="#3470FF" stroke-linecap="round" stroke-linejoin="round"/>
</symbol>
</defs>
<symbol id="spiner" version="1.1"  width="48" height="48" viewBox="0 0 32 32">
<path d="M12 4c0-2.209 1.791-4 4-4s4 1.791 4 4c0 2.209-1.791 4-4 4s-4-1.791-4-4zM20.485 7.515c0-2.209 1.791-4 4-4s4 1.791 4 4c0 2.209-1.791 4-4 4s-4-1.791-4-4zM26 16c0-1.105 0.895-2 2-2s2 0.895 2 2c0 1.105-0.895 2-2 2s-2-0.895-2-2zM22.485 24.485c0-1.105 0.895-2 2-2s2 0.895 2 2c0 1.105-0.895 2-2 2s-2-0.895-2-2zM14 28c0 0 0 0 0 0 0-1.105 0.895-2 2-2s2 0.895 2 2c0 0 0 0 0 0 0 1.105-0.895 2-2 2s-2-0.895-2-2zM5.515 24.485c0 0 0 0 0 0 0-1.105 0.895-2 2-2s2 0.895 2 2c0 0 0 0 0 0 0 1.105-0.895 2-2 2s-2-0.895-2-2zM4.515 7.515c0 0 0 0 0 0 0-1.657 1.343-3 3-3s3 1.343 3 3c0 0 0 0 0 0 0 1.657-1.343 3-3 3s-3-1.343-3-3zM1.75 16c0-1.243 1.007-2.25 2.25-2.25s2.25 1.007 2.25 2.25c0 1.243-1.007 2.25-2.25 2.25s-2.25-1.007-2.25-2.25z"></path>
</symbol>


</svg>
